<svg xmlns="http://www.w3.org/2000/svg" xmlns:xlink="http://www.w3.org/1999/xlink" xmlns:serif="http://www.serif.com/" width="100%" height="100%" viewBox="0 0 180 10" xml:space="preserve" style="fill-rule:evenodd;clip-rule:evenodd;stroke-linejoin:round;stroke-miterlimit:2;">
    <path d="M94.975,5.5C94.992,5.336 95,5.169 95,5C95,2.239 92.761,0 90,0C87.239,0 85,2.239 85,5C85,5.169 85.008,5.336 85.025,5.5L83,5.5C83,3.567 81.433,2 79.5,2C77.567,2 76,3.567 76,5.5L72.036,5.5L68.536,2L65.036,5.5L61.937,5.5C61.715,4.637 60.932,4 60,4C59.068,4 58.285,4.637 58.063,5.5L0,5.5L0,6L58,6C58,7.105 58.895,8 60,8C61.105,8 62,7.105 62,6L65.465,6L68.536,9.071L71.607,6L76.035,6C76.278,7.696 77.737,9 79.5,9C81.263,9 82.722,7.696 82.965,6L85.1,6C85.563,8.282 87.581,10 90,10C92.419,10 94.437,8.282 94.9,6L97.035,6C97.278,7.696 98.737,9 100.5,9C102.263,9 103.722,7.696 103.965,6L108.464,6L111.536,9.071L114.607,6L118,6C118,7.105 118.895,8 120,8C121.105,8 122,7.105 122,6L180,6L180,5.5L121.937,5.5C121.715,4.637 120.932,4 120,4C119.068,4 118.285,4.637 118.063,5.5L115.036,5.5L111.536,2L108.036,5.5L104,5.5C104,3.567 102.433,2 100.5,2C98.567,2 97,3.567 97,5.5L94.975,5.5Z" style="fill:rgb(219,158,48);"></path>
</svg>